<svg width="23" height="22" viewBox="0 0 23 22" fill="none" xmlns="http://www.w3.org/2000/svg">
<g clip-path="url(#clip0_770_635)">
<path d="M15.7537 0.736407C15.7087 0.686211 14.0906 0.756221 12.6825 2.28456C11.2743 3.81157 11.491 5.56314 11.5227 5.60806C11.5544 5.65297 13.5305 5.72298 14.792 3.94631C16.0535 2.16963 15.7986 0.787924 15.7537 0.736407V0.736407ZM20.1313 16.2351C20.0679 16.1083 17.0601 14.605 17.3401 11.7148C17.6202 8.82324 19.5527 8.03067 19.5831 7.94481C19.6135 7.85895 18.7945 6.90126 17.9266 6.41647C17.2894 6.07468 16.5842 5.87886 15.862 5.84318C15.7193 5.83922 15.224 5.71769 14.2055 5.99641C13.5345 6.18003 12.022 6.77445 11.6059 6.79823C11.1885 6.82201 9.94678 6.10869 8.6113 5.9198C7.75665 5.75468 6.85048 6.09284 6.2019 6.35307C5.55463 6.61198 4.32351 7.34906 3.46225 9.30803C2.601 11.2657 3.05144 14.3672 3.37375 15.3315C3.69606 16.2945 4.19934 17.873 5.05531 19.0249C5.81618 20.3247 6.82538 21.2269 7.24676 21.5334C7.66815 21.8398 8.857 22.0433 9.68127 21.6219C10.3444 21.215 11.5412 20.9812 12.0141 20.9984C12.4856 21.0156 13.4156 21.2018 14.368 21.7104C15.1222 21.9706 15.8356 21.8623 16.5502 21.5717C17.2648 21.2798 18.2991 20.1728 19.5065 17.9285C19.9648 16.885 20.1735 16.3209 20.1313 16.2351V16.2351Z" fill="black"/>
<path d="M15.7537 0.736407C15.7087 0.686211 14.0906 0.756221 12.6825 2.28456C11.2743 3.81157 11.491 5.56314 11.5227 5.60806C11.5544 5.65297 13.5305 5.72298 14.792 3.94631C16.0535 2.16963 15.7986 0.787924 15.7537 0.736407V0.736407ZM20.1313 16.2351C20.0679 16.1083 17.0601 14.605 17.3401 11.7148C17.6202 8.82324 19.5527 8.03067 19.5831 7.94481C19.6135 7.85895 18.7945 6.90126 17.9266 6.41647C17.2894 6.07468 16.5842 5.87886 15.862 5.84318C15.7193 5.83922 15.224 5.71769 14.2055 5.99641C13.5345 6.18003 12.022 6.77445 11.6059 6.79823C11.1885 6.82201 9.94678 6.10869 8.6113 5.9198C7.75665 5.75468 6.85048 6.09284 6.2019 6.35307C5.55463 6.61198 4.32351 7.34906 3.46225 9.30803C2.601 11.2657 3.05144 14.3672 3.37375 15.3315C3.69606 16.2945 4.19934 17.873 5.05531 19.0249C5.81618 20.3247 6.82538 21.2269 7.24676 21.5334C7.66815 21.8398 8.857 22.0433 9.68127 21.6219C10.3444 21.215 11.5412 20.9812 12.0141 20.9984C12.4856 21.0156 13.4156 21.2018 14.368 21.7104C15.1222 21.9706 15.8356 21.8623 16.5502 21.5717C17.2648 21.2798 18.2991 20.1728 19.5065 17.9285C19.9648 16.885 20.1735 16.3209 20.1313 16.2351V16.2351Z" fill="black"/>
</g>
<defs>
<clipPath id="clip0_770_635">
<rect width="21.1351" height="21.1351" fill="white" transform="translate(0.98291 0.72583)"/>
</clipPath>
</defs>
</svg>
