<svg width="22" height="22" viewBox="0 0 22 22" fill="none" xmlns="http://www.w3.org/2000/svg">
<g clip-path="url(#clip0_770_765)">
<path d="M11.1442 0.72583C5.30776 0.72583 0.57666 5.45693 0.57666 11.2934C0.57666 17.1299 5.30776 21.861 11.1442 21.861C16.9807 21.861 21.7118 17.1299 21.7118 11.2934C21.7118 5.45693 16.9807 0.72583 11.1442 0.72583Z" fill="url(#paint0_linear_770_765)"/>
<path d="M12.6665 15.5714H15.5343L15.9848 12.6582H12.6665V11.0658C12.6665 9.85571 13.0621 8.78249 14.194 8.78249H16.013V6.24044C15.6933 6.19722 15.0174 6.10303 13.7402 6.10303C11.073 6.10303 9.5094 7.51146 9.5094 10.7206V12.6587H6.76733V15.572H9.50885V23.5793C10.0518 23.6602 10.602 23.7156 11.1666 23.7156C11.6769 23.7156 12.175 23.6691 12.6665 23.6026V15.5714Z" fill="white"/>
</g>
<defs>
<linearGradient id="paint0_linear_770_765" x1="3.74323" y1="3.8924" x2="19.9232" y2="20.0724" gradientUnits="userSpaceOnUse">
<stop stop-color="#2AA4F4"/>
<stop offset="1" stop-color="#007AD9"/>
</linearGradient>
<clipPath id="clip0_770_765">
<rect width="21.1351" height="21.1351" fill="white" transform="translate(0.57666 0.72583)"/>
</clipPath>
</defs>
</svg>
