<svg width="21" height="22" viewBox="0 0 21 22" fill="none" xmlns="http://www.w3.org/2000/svg">
<g clip-path="url(#clip0_770_796)">
<path d="M20.6511 11.4912C20.6511 10.6253 20.582 9.9934 20.4327 9.33813H10.719V13.2464H16.4207C16.3058 14.2176 15.685 15.6803 14.3055 16.6632L14.2862 16.794L17.3575 19.2159L17.5703 19.2375C19.5245 17.4004 20.6511 14.6973 20.6511 11.4912" fill="#4285F4"/>
<path d="M10.7192 21.7885C13.5125 21.7885 15.8576 20.8524 17.5705 19.2376L14.3057 16.6632C13.4321 17.2834 12.2595 17.7164 10.7192 17.7164C7.98328 17.7164 5.66122 15.8793 4.83346 13.3401L4.71213 13.3506L1.51857 15.8664L1.47681 15.9846C3.17812 19.4248 6.67275 21.7885 10.7192 21.7885Z" fill="#34A853"/>
<path d="M4.83348 13.34C4.61507 12.6847 4.48867 11.9826 4.48867 11.2572C4.48867 10.5316 4.61507 9.82956 4.82199 9.17429L4.8162 9.03474L1.58262 6.47852L1.47683 6.52974C0.775636 7.95733 0.373291 9.56045 0.373291 11.2572C0.373291 12.9539 0.775636 14.5569 1.47683 15.9845L4.83348 13.34" fill="#FBBC05"/>
<path d="M10.7192 4.79789C12.6619 4.79789 13.9723 5.65209 14.7196 6.36593L17.6394 3.46396C15.8462 1.76726 13.5125 0.72583 10.7192 0.72583C6.67274 0.72583 3.17812 3.0895 1.47681 6.52968L4.82197 9.17424C5.66121 6.63504 7.98327 4.79789 10.7192 4.79789" fill="#EB4335"/>
</g>
<defs>
<clipPath id="clip0_770_796">
<rect width="20.2897" height="21.1351" fill="white" transform="translate(0.37207 0.72583)"/>
</clipPath>
</defs>
</svg>
